# xmcd CD database file
#
# Track frame offsets:
#	150
#	17340
#	38816
#	57173
#	85925
#	107342
#	125192
#	144374
#	164004
#	182109
#	199474
#	216432
#	233929
#	250663
#	268379
#	282501
#	300603
#	325013
#
# Disc length: 4570 seconds
#
# Revision: 0
# Processed by: cddbd v1.5.2PL0 Copyright (c) Steve Scherf et al.
# Submitted via: CDex 1.51
#
DISCID=0d11d812
DTITLE=Keith Urban - Greatest Hits
DYEAR=2007
DGENRE=Country
TTITLE0=Keith Urban - Romeo's Tune
TTITLE1=Keith Urban - Got It Right This Time (The Celebration)
TTITLE2=Keith Urban - I Told You So
TTITLE3=Keith Urban - Stupid Boy
TTITLE4=Keith Urban - Better Life
TTITLE5=Keith Urban - Making Memories Of Us
TTITLE6=Keith Urban - Once In A Lifetime
TTITLE7=Keith Urban - Tonight I Wanna Cry
TTITLE8=Keith Urban - You're My Better Half (Single Edit)
TTITLE9=Keith Urban - Days Go By
TTITLE10=Keith Urban - But For The Grace Of God
TTITLE11=Keith Urban - You'll Think Of Me
TTITLE12=Keith Urban - Who Wouldn't Wanna Be Me
TTITLE13=Keith Urban - Raining On Sunday
TTITLE14=Keith Urban - Where The Blacktop Ends
TTITLE15=Keith Urban - Your Everything
TTITLE16=Keith Urban - Somebody Like You
TTITLE17=Keith Urban - Everybody
EXTD=YEAR: 2007
EXTT0=
EXTT1=
EXTT2=
EXTT3=
EXTT4=
EXTT5=
EXTT6=
EXTT7=
EXTT8=
EXTT9=
EXTT10=
EXTT11=
EXTT12=
EXTT13=
EXTT14=
EXTT15=
EXTT16=
EXTT17=
PLAYORDER=
